<?xml version="1.0" encoding="utf-8" standalone="no"?>
<!DOCTYPE svg PUBLIC "-//W3C//DTD SVG 1.1//EN"
  "http://www.w3.org/Graphics/SVG/1.1/DTD/svg11.dtd">
<svg height="360pt" version="1.1" viewBox="0 0 720 360" width="720pt" xmlns="http://www.w3.org/2000/svg" xmlns:xlink="http://www.w3.org/1999/xlink">
 <metadata>
  <rdf:RDF xmlns:cc="http://creativecommons.org/ns#" xmlns:dc="http://purl.org/dc/elements/1.1/" xmlns:rdf="http://www.w3.org/1999/02/22-rdf-syntax-ns#">
   <cc:Work>
    <dc:type rdf:resource="http://purl.org/dc/dcmitype/StillImage"/>
    <dc:date>2021-12-08T13:25:00.828757</dc:date>
    <dc:format>image/svg+xml</dc:format>
    <dc:creator>
     <cc:Agent>
      <dc:title>Matplotlib v3.4.3, https://matplotlib.org/</dc:title>
     </cc:Agent>
    </dc:creator>
   </cc:Work>
  </rdf:RDF>
 </metadata>
 <defs>
  <style type="text/css">*{stroke-linecap:butt;stroke-linejoin:round;}</style>
 </defs>
 <g id="figure_1">
  <g id="patch_1">
   <path d="M 0 360 
L 720 360 
L 720 0 
L 0 0 
z
" style="fill:#ffffff;"/>
  </g>
  <g id="axes_1">
   <g id="patch_2">
    <path d="M 90 320.4 
L 343.636364 320.4 
L 343.636364 43.2 
L 90 43.2 
z
" style="fill:#ffffff;"/>
   </g>
   <g id="matplotlib.axis_1">
    <g id="xtick_1">
     <g id="line2d_1">
      <defs>
       <path d="M 0 0 
L 0 3.5 
" id="mb0af05c60e" style="stroke:#000000;stroke-width:0.8;"/>
      </defs>
      <g>
       <use style="stroke:#000000;stroke-width:0.8;" x="101.528926" xlink:href="#mb0af05c60e" y="320.4"/>
      </g>
     </g>
     <g id="text_1">
      <!-- 0 -->
      <g transform="translate(98.347676 334.998438)scale(0.1 -0.1)">
       <defs>
        <path d="M 2034 4250 
Q 1547 4250 1301 3770 
Q 1056 3291 1056 2328 
Q 1056 1369 1301 889 
Q 1547 409 2034 409 
Q 2525 409 2770 889 
Q 3016 1369 3016 2328 
Q 3016 3291 2770 3770 
Q 2525 4250 2034 4250 
z
M 2034 4750 
Q 2819 4750 3233 4129 
Q 3647 3509 3647 2328 
Q 3647 1150 3233 529 
Q 2819 -91 2034 -91 
Q 1250 -91 836 529 
Q 422 1150 422 2328 
Q 422 3509 836 4129 
Q 1250 4750 2034 4750 
z
" id="DejaVuSans-30" transform="scale(0.015625)"/>
       </defs>
       <use xlink:href="#DejaVuSans-30"/>
      </g>
     </g>
    </g>
    <g id="xtick_2">
     <g id="line2d_2">
      <g>
       <use style="stroke:#000000;stroke-width:0.8;" x="140.009986" xlink:href="#mb0af05c60e" y="320.4"/>
      </g>
     </g>
     <g id="text_2">
      <!-- 250 -->
      <g transform="translate(130.466236 334.998438)scale(0.1 -0.1)">
       <defs>
        <path d="M 1228 531 
L 3431 531 
L 3431 0 
L 469 0 
L 469 531 
Q 828 903 1448 1529 
Q 2069 2156 2228 2338 
Q 2531 2678 2651 2914 
Q 2772 3150 2772 3378 
Q 2772 3750 2511 3984 
Q 2250 4219 1831 4219 
Q 1534 4219 1204 4116 
Q 875 4013 500 3803 
L 500 4441 
Q 881 4594 1212 4672 
Q 1544 4750 1819 4750 
Q 2544 4750 2975 4387 
Q 3406 4025 3406 3419 
Q 3406 3131 3298 2873 
Q 3191 2616 2906 2266 
Q 2828 2175 2409 1742 
Q 1991 1309 1228 531 
z
" id="DejaVuSans-32" transform="scale(0.015625)"/>
        <path d="M 691 4666 
L 3169 4666 
L 3169 4134 
L 1269 4134 
L 1269 2991 
Q 1406 3038 1543 3061 
Q 1681 3084 1819 3084 
Q 2600 3084 3056 2656 
Q 3513 2228 3513 1497 
Q 3513 744 3044 326 
Q 2575 -91 1722 -91 
Q 1428 -91 1123 -41 
Q 819 9 494 109 
L 494 744 
Q 775 591 1075 516 
Q 1375 441 1709 441 
Q 2250 441 2565 725 
Q 2881 1009 2881 1497 
Q 2881 1984 2565 2268 
Q 2250 2553 1709 2553 
Q 1456 2553 1204 2497 
Q 953 2441 691 2322 
L 691 4666 
z
" id="DejaVuSans-35" transform="scale(0.015625)"/>
       </defs>
       <use xlink:href="#DejaVuSans-32"/>
       <use x="63.623047" xlink:href="#DejaVuSans-35"/>
       <use x="127.246094" xlink:href="#DejaVuSans-30"/>
      </g>
     </g>
    </g>
    <g id="xtick_3">
     <g id="line2d_3">
      <g>
       <use style="stroke:#000000;stroke-width:0.8;" x="178.491046" xlink:href="#mb0af05c60e" y="320.4"/>
      </g>
     </g>
     <g id="text_3">
      <!-- 500 -->
      <g transform="translate(168.947296 334.998438)scale(0.1 -0.1)">
       <use xlink:href="#DejaVuSans-35"/>
       <use x="63.623047" xlink:href="#DejaVuSans-30"/>
       <use x="127.246094" xlink:href="#DejaVuSans-30"/>
      </g>
     </g>
    </g>
    <g id="xtick_4">
     <g id="line2d_4">
      <g>
       <use style="stroke:#000000;stroke-width:0.8;" x="216.972106" xlink:href="#mb0af05c60e" y="320.4"/>
      </g>
     </g>
     <g id="text_4">
      <!-- 750 -->
      <g transform="translate(207.428356 334.998438)scale(0.1 -0.1)">
       <defs>
        <path d="M 525 4666 
L 3525 4666 
L 3525 4397 
L 1831 0 
L 1172 0 
L 2766 4134 
L 525 4134 
L 525 4666 
z
" id="DejaVuSans-37" transform="scale(0.015625)"/>
       </defs>
       <use xlink:href="#DejaVuSans-37"/>
       <use x="63.623047" xlink:href="#DejaVuSans-35"/>
       <use x="127.246094" xlink:href="#DejaVuSans-30"/>
      </g>
     </g>
    </g>
    <g id="xtick_5">
     <g id="line2d_5">
      <g>
       <use style="stroke:#000000;stroke-width:0.8;" x="255.453166" xlink:href="#mb0af05c60e" y="320.4"/>
      </g>
     </g>
     <g id="text_5">
      <!-- 1000 -->
      <g transform="translate(242.728166 334.998438)scale(0.1 -0.1)">
       <defs>
        <path d="M 794 531 
L 1825 531 
L 1825 4091 
L 703 3866 
L 703 4441 
L 1819 4666 
L 2450 4666 
L 2450 531 
L 3481 531 
L 3481 0 
L 794 0 
L 794 531 
z
" id="DejaVuSans-31" transform="scale(0.015625)"/>
       </defs>
       <use xlink:href="#DejaVuSans-31"/>
       <use x="63.623047" xlink:href="#DejaVuSans-30"/>
       <use x="127.246094" xlink:href="#DejaVuSans-30"/>
       <use x="190.869141" xlink:href="#DejaVuSans-30"/>
      </g>
     </g>
    </g>
    <g id="xtick_6">
     <g id="line2d_6">
      <g>
       <use style="stroke:#000000;stroke-width:0.8;" x="293.934226" xlink:href="#mb0af05c60e" y="320.4"/>
      </g>
     </g>
     <g id="text_6">
      <!-- 1250 -->
      <g transform="translate(281.209226 334.998438)scale(0.1 -0.1)">
       <use xlink:href="#DejaVuSans-31"/>
       <use x="63.623047" xlink:href="#DejaVuSans-32"/>
       <use x="127.246094" xlink:href="#DejaVuSans-35"/>
       <use x="190.869141" xlink:href="#DejaVuSans-30"/>
      </g>
     </g>
    </g>
    <g id="xtick_7">
     <g id="line2d_7">
      <g>
       <use style="stroke:#000000;stroke-width:0.8;" x="332.415286" xlink:href="#mb0af05c60e" y="320.4"/>
      </g>
     </g>
     <g id="text_7">
      <!-- 1500 -->
      <g transform="translate(319.690286 334.998438)scale(0.1 -0.1)">
       <use xlink:href="#DejaVuSans-31"/>
       <use x="63.623047" xlink:href="#DejaVuSans-35"/>
       <use x="127.246094" xlink:href="#DejaVuSans-30"/>
       <use x="190.869141" xlink:href="#DejaVuSans-30"/>
      </g>
     </g>
    </g>
    <g id="text_8">
     <!-- Time step -->
     <g transform="translate(192.179901 348.676562)scale(0.1 -0.1)">
      <defs>
       <path d="M -19 4666 
L 3928 4666 
L 3928 4134 
L 2272 4134 
L 2272 0 
L 1638 0 
L 1638 4134 
L -19 4134 
L -19 4666 
z
" id="DejaVuSans-54" transform="scale(0.015625)"/>
       <path d="M 603 3500 
L 1178 3500 
L 1178 0 
L 603 0 
L 603 3500 
z
M 603 4863 
L 1178 4863 
L 1178 4134 
L 603 4134 
L 603 4863 
z
" id="DejaVuSans-69" transform="scale(0.015625)"/>
       <path d="M 3328 2828 
Q 3544 3216 3844 3400 
Q 4144 3584 4550 3584 
Q 5097 3584 5394 3201 
Q 5691 2819 5691 2113 
L 5691 0 
L 5113 0 
L 5113 2094 
Q 5113 2597 4934 2840 
Q 4756 3084 4391 3084 
Q 3944 3084 3684 2787 
Q 3425 2491 3425 1978 
L 3425 0 
L 2847 0 
L 2847 2094 
Q 2847 2600 2669 2842 
Q 2491 3084 2119 3084 
Q 1678 3084 1418 2786 
Q 1159 2488 1159 1978 
L 1159 0 
L 581 0 
L 581 3500 
L 1159 3500 
L 1159 2956 
Q 1356 3278 1631 3431 
Q 1906 3584 2284 3584 
Q 2666 3584 2933 3390 
Q 3200 3197 3328 2828 
z
" id="DejaVuSans-6d" transform="scale(0.015625)"/>
       <path d="M 3597 1894 
L 3597 1613 
L 953 1613 
Q 991 1019 1311 708 
Q 1631 397 2203 397 
Q 2534 397 2845 478 
Q 3156 559 3463 722 
L 3463 178 
Q 3153 47 2828 -22 
Q 2503 -91 2169 -91 
Q 1331 -91 842 396 
Q 353 884 353 1716 
Q 353 2575 817 3079 
Q 1281 3584 2069 3584 
Q 2775 3584 3186 3129 
Q 3597 2675 3597 1894 
z
M 3022 2063 
Q 3016 2534 2758 2815 
Q 2500 3097 2075 3097 
Q 1594 3097 1305 2825 
Q 1016 2553 972 2059 
L 3022 2063 
z
" id="DejaVuSans-65" transform="scale(0.015625)"/>
       <path id="DejaVuSans-20" transform="scale(0.015625)"/>
       <path d="M 2834 3397 
L 2834 2853 
Q 2591 2978 2328 3040 
Q 2066 3103 1784 3103 
Q 1356 3103 1142 2972 
Q 928 2841 928 2578 
Q 928 2378 1081 2264 
Q 1234 2150 1697 2047 
L 1894 2003 
Q 2506 1872 2764 1633 
Q 3022 1394 3022 966 
Q 3022 478 2636 193 
Q 2250 -91 1575 -91 
Q 1294 -91 989 -36 
Q 684 19 347 128 
L 347 722 
Q 666 556 975 473 
Q 1284 391 1588 391 
Q 1994 391 2212 530 
Q 2431 669 2431 922 
Q 2431 1156 2273 1281 
Q 2116 1406 1581 1522 
L 1381 1569 
Q 847 1681 609 1914 
Q 372 2147 372 2553 
Q 372 3047 722 3315 
Q 1072 3584 1716 3584 
Q 2034 3584 2315 3537 
Q 2597 3491 2834 3397 
z
" id="DejaVuSans-73" transform="scale(0.015625)"/>
       <path d="M 1172 4494 
L 1172 3500 
L 2356 3500 
L 2356 3053 
L 1172 3053 
L 1172 1153 
Q 1172 725 1289 603 
Q 1406 481 1766 481 
L 2356 481 
L 2356 0 
L 1766 0 
Q 1100 0 847 248 
Q 594 497 594 1153 
L 594 3053 
L 172 3053 
L 172 3500 
L 594 3500 
L 594 4494 
L 1172 4494 
z
" id="DejaVuSans-74" transform="scale(0.015625)"/>
       <path d="M 1159 525 
L 1159 -1331 
L 581 -1331 
L 581 3500 
L 1159 3500 
L 1159 2969 
Q 1341 3281 1617 3432 
Q 1894 3584 2278 3584 
Q 2916 3584 3314 3078 
Q 3713 2572 3713 1747 
Q 3713 922 3314 415 
Q 2916 -91 2278 -91 
Q 1894 -91 1617 61 
Q 1341 213 1159 525 
z
M 3116 1747 
Q 3116 2381 2855 2742 
Q 2594 3103 2138 3103 
Q 1681 3103 1420 2742 
Q 1159 2381 1159 1747 
Q 1159 1113 1420 752 
Q 1681 391 2138 391 
Q 2594 391 2855 752 
Q 3116 1113 3116 1747 
z
" id="DejaVuSans-70" transform="scale(0.015625)"/>
      </defs>
      <use xlink:href="#DejaVuSans-54"/>
      <use x="57.958984" xlink:href="#DejaVuSans-69"/>
      <use x="85.742188" xlink:href="#DejaVuSans-6d"/>
      <use x="183.154297" xlink:href="#DejaVuSans-65"/>
      <use x="244.677734" xlink:href="#DejaVuSans-20"/>
      <use x="276.464844" xlink:href="#DejaVuSans-73"/>
      <use x="328.564453" xlink:href="#DejaVuSans-74"/>
      <use x="367.773438" xlink:href="#DejaVuSans-65"/>
      <use x="429.296875" xlink:href="#DejaVuSans-70"/>
     </g>
    </g>
   </g>
   <g id="matplotlib.axis_2">
    <g id="ytick_1">
     <g id="line2d_8">
      <defs>
       <path d="M 0 0 
L -3.5 0 
" id="mafe00debee" style="stroke:#000000;stroke-width:0.8;"/>
      </defs>
      <g>
       <use style="stroke:#000000;stroke-width:0.8;" x="90" xlink:href="#mafe00debee" y="298.169815"/>
      </g>
     </g>
     <g id="text_9">
      <!-- 0.01 -->
      <g transform="translate(60.734375 301.969034)scale(0.1 -0.1)">
       <defs>
        <path d="M 684 794 
L 1344 794 
L 1344 0 
L 684 0 
L 684 794 
z
" id="DejaVuSans-2e" transform="scale(0.015625)"/>
       </defs>
       <use xlink:href="#DejaVuSans-30"/>
       <use x="63.623047" xlink:href="#DejaVuSans-2e"/>
       <use x="95.410156" xlink:href="#DejaVuSans-30"/>
       <use x="159.033203" xlink:href="#DejaVuSans-31"/>
      </g>
     </g>
    </g>
    <g id="ytick_2">
     <g id="line2d_9">
      <g>
       <use style="stroke:#000000;stroke-width:0.8;" x="90" xlink:href="#mafe00debee" y="254.731756"/>
      </g>
     </g>
     <g id="text_10">
      <!-- 0.02 -->
      <g transform="translate(60.734375 258.530975)scale(0.1 -0.1)">
       <use xlink:href="#DejaVuSans-30"/>
       <use x="63.623047" xlink:href="#DejaVuSans-2e"/>
       <use x="95.410156" xlink:href="#DejaVuSans-30"/>
       <use x="159.033203" xlink:href="#DejaVuSans-32"/>
      </g>
     </g>
    </g>
    <g id="ytick_3">
     <g id="line2d_10">
      <g>
       <use style="stroke:#000000;stroke-width:0.8;" x="90" xlink:href="#mafe00debee" y="211.293697"/>
      </g>
     </g>
     <g id="text_11">
      <!-- 0.03 -->
      <g transform="translate(60.734375 215.092916)scale(0.1 -0.1)">
       <defs>
        <path d="M 2597 2516 
Q 3050 2419 3304 2112 
Q 3559 1806 3559 1356 
Q 3559 666 3084 287 
Q 2609 -91 1734 -91 
Q 1441 -91 1130 -33 
Q 819 25 488 141 
L 488 750 
Q 750 597 1062 519 
Q 1375 441 1716 441 
Q 2309 441 2620 675 
Q 2931 909 2931 1356 
Q 2931 1769 2642 2001 
Q 2353 2234 1838 2234 
L 1294 2234 
L 1294 2753 
L 1863 2753 
Q 2328 2753 2575 2939 
Q 2822 3125 2822 3475 
Q 2822 3834 2567 4026 
Q 2313 4219 1838 4219 
Q 1578 4219 1281 4162 
Q 984 4106 628 3988 
L 628 4550 
Q 988 4650 1302 4700 
Q 1616 4750 1894 4750 
Q 2613 4750 3031 4423 
Q 3450 4097 3450 3541 
Q 3450 3153 3228 2886 
Q 3006 2619 2597 2516 
z
" id="DejaVuSans-33" transform="scale(0.015625)"/>
       </defs>
       <use xlink:href="#DejaVuSans-30"/>
       <use x="63.623047" xlink:href="#DejaVuSans-2e"/>
       <use x="95.410156" xlink:href="#DejaVuSans-30"/>
       <use x="159.033203" xlink:href="#DejaVuSans-33"/>
      </g>
     </g>
    </g>
    <g id="ytick_4">
     <g id="line2d_11">
      <g>
       <use style="stroke:#000000;stroke-width:0.8;" x="90" xlink:href="#mafe00debee" y="167.855638"/>
      </g>
     </g>
     <g id="text_12">
      <!-- 0.04 -->
      <g transform="translate(60.734375 171.654857)scale(0.1 -0.1)">
       <defs>
        <path d="M 2419 4116 
L 825 1625 
L 2419 1625 
L 2419 4116 
z
M 2253 4666 
L 3047 4666 
L 3047 1625 
L 3713 1625 
L 3713 1100 
L 3047 1100 
L 3047 0 
L 2419 0 
L 2419 1100 
L 313 1100 
L 313 1709 
L 2253 4666 
z
" id="DejaVuSans-34" transform="scale(0.015625)"/>
       </defs>
       <use xlink:href="#DejaVuSans-30"/>
       <use x="63.623047" xlink:href="#DejaVuSans-2e"/>
       <use x="95.410156" xlink:href="#DejaVuSans-30"/>
       <use x="159.033203" xlink:href="#DejaVuSans-34"/>
      </g>
     </g>
    </g>
    <g id="ytick_5">
     <g id="line2d_12">
      <g>
       <use style="stroke:#000000;stroke-width:0.8;" x="90" xlink:href="#mafe00debee" y="124.417579"/>
      </g>
     </g>
     <g id="text_13">
      <!-- 0.05 -->
      <g transform="translate(60.734375 128.216798)scale(0.1 -0.1)">
       <use xlink:href="#DejaVuSans-30"/>
       <use x="63.623047" xlink:href="#DejaVuSans-2e"/>
       <use x="95.410156" xlink:href="#DejaVuSans-30"/>
       <use x="159.033203" xlink:href="#DejaVuSans-35"/>
      </g>
     </g>
    </g>
    <g id="ytick_6">
     <g id="line2d_13">
      <g>
       <use style="stroke:#000000;stroke-width:0.8;" x="90" xlink:href="#mafe00debee" y="80.97952"/>
      </g>
     </g>
     <g id="text_14">
      <!-- 0.06 -->
      <g transform="translate(60.734375 84.778739)scale(0.1 -0.1)">
       <defs>
        <path d="M 2113 2584 
Q 1688 2584 1439 2293 
Q 1191 2003 1191 1497 
Q 1191 994 1439 701 
Q 1688 409 2113 409 
Q 2538 409 2786 701 
Q 3034 994 3034 1497 
Q 3034 2003 2786 2293 
Q 2538 2584 2113 2584 
z
M 3366 4563 
L 3366 3988 
Q 3128 4100 2886 4159 
Q 2644 4219 2406 4219 
Q 1781 4219 1451 3797 
Q 1122 3375 1075 2522 
Q 1259 2794 1537 2939 
Q 1816 3084 2150 3084 
Q 2853 3084 3261 2657 
Q 3669 2231 3669 1497 
Q 3669 778 3244 343 
Q 2819 -91 2113 -91 
Q 1303 -91 875 529 
Q 447 1150 447 2328 
Q 447 3434 972 4092 
Q 1497 4750 2381 4750 
Q 2619 4750 2861 4703 
Q 3103 4656 3366 4563 
z
" id="DejaVuSans-36" transform="scale(0.015625)"/>
       </defs>
       <use xlink:href="#DejaVuSans-30"/>
       <use x="63.623047" xlink:href="#DejaVuSans-2e"/>
       <use x="95.410156" xlink:href="#DejaVuSans-30"/>
       <use x="159.033203" xlink:href="#DejaVuSans-36"/>
      </g>
     </g>
    </g>
    <g id="text_15">
     <!-- Step duration [s] -->
     <g transform="translate(54.654687 223.909375)rotate(-90)scale(0.1 -0.1)">
      <defs>
       <path d="M 3425 4513 
L 3425 3897 
Q 3066 4069 2747 4153 
Q 2428 4238 2131 4238 
Q 1616 4238 1336 4038 
Q 1056 3838 1056 3469 
Q 1056 3159 1242 3001 
Q 1428 2844 1947 2747 
L 2328 2669 
Q 3034 2534 3370 2195 
Q 3706 1856 3706 1288 
Q 3706 609 3251 259 
Q 2797 -91 1919 -91 
Q 1588 -91 1214 -16 
Q 841 59 441 206 
L 441 856 
Q 825 641 1194 531 
Q 1563 422 1919 422 
Q 2459 422 2753 634 
Q 3047 847 3047 1241 
Q 3047 1584 2836 1778 
Q 2625 1972 2144 2069 
L 1759 2144 
Q 1053 2284 737 2584 
Q 422 2884 422 3419 
Q 422 4038 858 4394 
Q 1294 4750 2059 4750 
Q 2388 4750 2728 4690 
Q 3069 4631 3425 4513 
z
" id="DejaVuSans-53" transform="scale(0.015625)"/>
       <path d="M 2906 2969 
L 2906 4863 
L 3481 4863 
L 3481 0 
L 2906 0 
L 2906 525 
Q 2725 213 2448 61 
Q 2172 -91 1784 -91 
Q 1150 -91 751 415 
Q 353 922 353 1747 
Q 353 2572 751 3078 
Q 1150 3584 1784 3584 
Q 2172 3584 2448 3432 
Q 2725 3281 2906 2969 
z
M 947 1747 
Q 947 1113 1208 752 
Q 1469 391 1925 391 
Q 2381 391 2643 752 
Q 2906 1113 2906 1747 
Q 2906 2381 2643 2742 
Q 2381 3103 1925 3103 
Q 1469 3103 1208 2742 
Q 947 2381 947 1747 
z
" id="DejaVuSans-64" transform="scale(0.015625)"/>
       <path d="M 544 1381 
L 544 3500 
L 1119 3500 
L 1119 1403 
Q 1119 906 1312 657 
Q 1506 409 1894 409 
Q 2359 409 2629 706 
Q 2900 1003 2900 1516 
L 2900 3500 
L 3475 3500 
L 3475 0 
L 2900 0 
L 2900 538 
Q 2691 219 2414 64 
Q 2138 -91 1772 -91 
Q 1169 -91 856 284 
Q 544 659 544 1381 
z
M 1991 3584 
L 1991 3584 
z
" id="DejaVuSans-75" transform="scale(0.015625)"/>
       <path d="M 2631 2963 
Q 2534 3019 2420 3045 
Q 2306 3072 2169 3072 
Q 1681 3072 1420 2755 
Q 1159 2438 1159 1844 
L 1159 0 
L 581 0 
L 581 3500 
L 1159 3500 
L 1159 2956 
Q 1341 3275 1631 3429 
Q 1922 3584 2338 3584 
Q 2397 3584 2469 3576 
Q 2541 3569 2628 3553 
L 2631 2963 
z
" id="DejaVuSans-72" transform="scale(0.015625)"/>
       <path d="M 2194 1759 
Q 1497 1759 1228 1600 
Q 959 1441 959 1056 
Q 959 750 1161 570 
Q 1363 391 1709 391 
Q 2188 391 2477 730 
Q 2766 1069 2766 1631 
L 2766 1759 
L 2194 1759 
z
M 3341 1997 
L 3341 0 
L 2766 0 
L 2766 531 
Q 2569 213 2275 61 
Q 1981 -91 1556 -91 
Q 1019 -91 701 211 
Q 384 513 384 1019 
Q 384 1609 779 1909 
Q 1175 2209 1959 2209 
L 2766 2209 
L 2766 2266 
Q 2766 2663 2505 2880 
Q 2244 3097 1772 3097 
Q 1472 3097 1187 3025 
Q 903 2953 641 2809 
L 641 3341 
Q 956 3463 1253 3523 
Q 1550 3584 1831 3584 
Q 2591 3584 2966 3190 
Q 3341 2797 3341 1997 
z
" id="DejaVuSans-61" transform="scale(0.015625)"/>
       <path d="M 1959 3097 
Q 1497 3097 1228 2736 
Q 959 2375 959 1747 
Q 959 1119 1226 758 
Q 1494 397 1959 397 
Q 2419 397 2687 759 
Q 2956 1122 2956 1747 
Q 2956 2369 2687 2733 
Q 2419 3097 1959 3097 
z
M 1959 3584 
Q 2709 3584 3137 3096 
Q 3566 2609 3566 1747 
Q 3566 888 3137 398 
Q 2709 -91 1959 -91 
Q 1206 -91 779 398 
Q 353 888 353 1747 
Q 353 2609 779 3096 
Q 1206 3584 1959 3584 
z
" id="DejaVuSans-6f" transform="scale(0.015625)"/>
       <path d="M 3513 2113 
L 3513 0 
L 2938 0 
L 2938 2094 
Q 2938 2591 2744 2837 
Q 2550 3084 2163 3084 
Q 1697 3084 1428 2787 
Q 1159 2491 1159 1978 
L 1159 0 
L 581 0 
L 581 3500 
L 1159 3500 
L 1159 2956 
Q 1366 3272 1645 3428 
Q 1925 3584 2291 3584 
Q 2894 3584 3203 3211 
Q 3513 2838 3513 2113 
z
" id="DejaVuSans-6e" transform="scale(0.015625)"/>
       <path d="M 550 4863 
L 1875 4863 
L 1875 4416 
L 1125 4416 
L 1125 -397 
L 1875 -397 
L 1875 -844 
L 550 -844 
L 550 4863 
z
" id="DejaVuSans-5b" transform="scale(0.015625)"/>
       <path d="M 1947 4863 
L 1947 -844 
L 622 -844 
L 622 -397 
L 1369 -397 
L 1369 4416 
L 622 4416 
L 622 4863 
L 1947 4863 
z
" id="DejaVuSans-5d" transform="scale(0.015625)"/>
      </defs>
      <use xlink:href="#DejaVuSans-53"/>
      <use x="63.476562" xlink:href="#DejaVuSans-74"/>
      <use x="102.685547" xlink:href="#DejaVuSans-65"/>
      <use x="164.208984" xlink:href="#DejaVuSans-70"/>
      <use x="227.685547" xlink:href="#DejaVuSans-20"/>
      <use x="259.472656" xlink:href="#DejaVuSans-64"/>
      <use x="322.949219" xlink:href="#DejaVuSans-75"/>
      <use x="386.328125" xlink:href="#DejaVuSans-72"/>
      <use x="427.441406" xlink:href="#DejaVuSans-61"/>
      <use x="488.720703" xlink:href="#DejaVuSans-74"/>
      <use x="527.929688" xlink:href="#DejaVuSans-69"/>
      <use x="555.712891" xlink:href="#DejaVuSans-6f"/>
      <use x="616.894531" xlink:href="#DejaVuSans-6e"/>
      <use x="680.273438" xlink:href="#DejaVuSans-20"/>
      <use x="712.060547" xlink:href="#DejaVuSans-5b"/>
      <use x="751.074219" xlink:href="#DejaVuSans-73"/>
      <use x="803.173828" xlink:href="#DejaVuSans-5d"/>
     </g>
    </g>
   </g>
   <g id="line2d_14">
    <path clip-path="url(#p564a430c13)" d="M 101.528926 256.978462 
L 101.836774 279.230724 
L 101.990698 285.83922 
L 102.144623 285.747669 
L 102.298547 298.536527 
L 102.452471 243.167061 
L 102.606395 296.534523 
L 102.76032 294.805153 
L 102.914244 277.850055 
L 103.068168 298.671834 
L 103.222092 296.79302 
L 103.376017 296.90342 
L 103.529941 262.787234 
L 103.683865 297.773827 
L 103.837789 296.230924 
L 104.145638 282.482801 
L 104.299562 297.348384 
L 104.453486 277.605695 
L 104.60741 301.474234 
L 104.761335 280.877294 
L 104.915259 296.2491 
L 105.069183 270.144967 
L 105.223107 296.236309 
L 105.377032 302.267227 
L 105.530956 253.658394 
L 105.838804 307.8 
L 106.300577 271.606416 
L 106.454501 286.320536 
L 106.608426 276.842995 
L 106.76235 302.372241 
L 106.916274 249.037765 
L 107.070198 301.375279 
L 107.224123 270.542136 
L 107.378047 294.729758 
L 107.531971 295.989257 
L 107.685895 303.295156 
L 108.301592 264.442555 
L 108.455516 291.28852 
L 108.609441 296.309012 
L 108.763365 238.255623 
L 108.917289 298.790984 
L 109.071213 300.59171 
L 109.225138 248.678293 
L 109.379062 305.94744 
L 109.532986 282.04053 
L 109.68691 292.107093 
L 109.840835 285.18692 
L 110.148683 304.597064 
L 110.302607 302.592368 
L 110.456532 279.646742 
L 110.610456 281.172142 
L 110.76438 293.799439 
L 110.918304 281.810306 
L 111.072229 300.835397 
L 111.226153 305.423715 
L 111.380077 293.240709 
L 111.687925 306.419331 
L 111.84185 280.13277 
L 111.995774 284.336035 
L 112.149698 294.030336 
L 112.303622 292.848925 
L 112.457547 305.917821 
L 112.611471 300.146746 
L 112.765395 284.106484 
L 112.919319 302.571499 
L 113.227168 290.260592 
L 113.381092 301.657336 
L 113.535016 251.340001 
L 113.688941 237.492923 
L 113.996789 292.604565 
L 114.150713 296.935732 
L 114.304638 297.912499 
L 114.458562 294.988255 
L 114.612486 288.502275 
L 114.76641 294.799768 
L 114.920335 282.497611 
L 115.074259 300.7149 
L 115.228183 302.059218 
L 115.382107 268.054105 
L 115.536032 303.954861 
L 115.689956 234.450874 
L 115.997804 297.47494 
L 116.151728 289.511355 
L 116.305653 230.185004 
L 116.613501 300.950509 
L 116.767425 270.816116 
L 116.92135 274.971586 
L 117.075274 292.146137 
L 117.229198 280.523207 
L 117.383122 301.495103 
L 117.690971 278.641028 
L 117.844895 283.184916 
L 117.998819 299.859303 
L 118.152744 249.09835 
L 118.306668 282.243826 
L 118.614516 243.269383 
L 118.768441 280.109882 
L 118.922365 284.554141 
L 119.076289 294.098326 
L 119.230213 272.06619 
L 119.384138 301.206313 
L 119.691986 291.523456 
L 119.84591 276.945316 
L 119.999834 291.613661 
L 120.153759 290.90616 
L 120.461607 301.873423 
L 120.615531 300.646237 
L 120.769456 276.216948 
L 120.92338 296.406621 
L 121.077304 293.283119 
L 121.231228 273.187689 
L 121.539077 304.683902 
L 121.846925 290.587078 
L 122.154774 298.179074 
L 122.462622 287.313459 
L 122.616547 266.067585 
L 122.770471 291.476334 
L 122.924395 294.997006 
L 123.078319 287.184884 
L 123.232244 298.733765 
L 123.386168 298.877823 
L 123.540092 301.781199 
L 123.694016 286.652408 
L 123.847941 305.886182 
L 124.001865 295.656711 
L 124.155789 301.994594 
L 124.463637 301.134957 
L 124.617562 268.0467 
L 124.92541 292.105747 
L 125.233259 255.203316 
L 125.387183 305.11473 
L 125.541107 289.029366 
L 125.695031 294.799094 
L 125.848956 290.014885 
L 126.00288 291.175428 
L 126.156804 295.324166 
L 126.310728 288.56488 
L 126.464653 294.366247 
L 126.618577 295.843179 
L 126.772501 299.462133 
L 126.926425 298.883882 
L 127.234274 287.874209 
L 127.388198 305.623646 
L 127.696047 269.747124 
L 127.849971 303.990539 
L 128.003895 303.23659 
L 128.157819 269.242921 
L 128.311743 303.94409 
L 128.465668 303.182063 
L 128.619592 209.165987 
L 128.773516 281.53498 
L 128.92744 299.989224 
L 129.081365 297.993953 
L 129.235289 291.114169 
L 129.389213 302.911449 
L 129.543137 305.965616 
L 129.697062 304.920858 
L 129.850986 304.99558 
L 130.00491 301.121494 
L 130.158834 300.592384 
L 130.312759 272.57174 
L 130.466683 303.281692 
L 130.620607 296.393831 
L 130.774531 281.641341 
L 131.08238 304.648898 
L 131.236304 303.416326 
L 131.390228 305.107326 
L 131.544153 302.644202 
L 132.005925 279.205143 
L 132.159849 277.553188 
L 132.467698 303.286404 
L 132.621622 303.563077 
L 132.775546 297.493115 
L 132.929471 240.792122 
L 133.083395 297.787963 
L 133.237319 297.994626 
L 133.391243 301.250742 
L 133.545168 293.056261 
L 133.853016 305.328125 
L 134.00694 304.212011 
L 134.160865 261.692662 
L 134.314789 278.840959 
L 134.468713 276.804624 
L 134.622637 287.48983 
L 134.776562 272.382579 
L 135.08441 294.041107 
L 135.238334 292.70756 
L 135.392259 289.891022 
L 135.546183 298.953218 
L 135.700107 292.339336 
L 135.854031 255.639529 
L 136.007956 304.714868 
L 136.315804 302.438212 
L 136.469728 285.551104 
L 136.623652 292.850944 
L 136.777577 278.068162 
L 136.931501 242.547073 
L 137.085425 302.041042 
L 137.239349 300.387067 
L 137.393274 305.777128 
L 137.547198 306.417985 
L 137.701122 300.592384 
L 138.008971 304.782185 
L 138.162895 297.979816 
L 138.316819 303.38738 
L 138.470743 289.769852 
L 138.624668 297.110755 
L 138.778592 298.679912 
L 138.932516 250.870803 
L 139.08644 294.772168 
L 139.240365 283.49592 
L 139.394289 304.164216 
L 139.548213 294.878528 
L 139.702137 302.624006 
L 139.856062 291.519417 
L 140.009986 262.344289 
L 140.16391 306.183722 
L 140.317834 302.835381 
L 140.471758 305.519305 
L 140.625683 299.340963 
L 140.779607 301.075719 
L 140.933531 295.940115 
L 141.087455 265.562708 
L 141.24138 303.399497 
L 141.549228 258.027259 
L 141.703152 257.506226 
L 141.857077 294.352784 
L 142.011001 301.515971 
L 142.164925 300.223487 
L 142.318849 306.737067 
L 142.472774 303.186102 
L 142.626698 261.074693 
L 142.780622 302.810474 
L 142.934546 295.058264 
L 143.088471 301.397493 
L 143.242395 299.885557 
L 143.396319 294.558773 
L 143.550243 268.965575 
L 143.858092 289.635218 
L 144.012016 288.953971 
L 144.16594 243.324583 
L 144.473789 303.390746 
L 144.935561 285.188939 
L 145.089486 296.162261 
L 145.397334 262.754922 
L 145.705183 286.133395 
L 145.859107 286.989665 
L 146.166955 274.783772 
L 146.474804 229.029174 
L 146.936577 303.217068 
L 147.090501 257.548636 
L 147.398349 296.772825 
L 147.552274 291.813592 
L 147.860122 305.515939 
L 148.014046 295.341668 
L 148.167971 296.267275 
L 148.321895 304.607161 
L 148.475819 300.732403 
L 148.629743 241.066102 
L 148.783667 300.586325 
L 149.091516 284.315166 
L 149.24544 302.500143 
L 149.399364 270.378556 
L 149.553289 279.041563 
L 149.707213 298.872438 
L 149.861137 288.257915 
L 150.015061 293.340338 
L 150.168986 258.560408 
L 150.32291 256.761702 
L 150.476834 290.909526 
L 150.630758 286.432955 
L 151.092531 250.321497 
L 151.246455 271.370134 
L 151.40038 247.90011 
L 151.554304 292.421463 
L 151.708228 269.292735 
L 151.862152 211.678253 
L 152.016077 272.572413 
L 152.170001 259.228865 
L 152.323925 300.152131 
L 152.477849 291.915913 
L 152.631773 294.392501 
L 152.785698 282.993736 
L 152.939622 285.829796 
L 153.093546 292.379053 
L 153.24747 288.636236 
L 153.555319 259.210689 
L 153.709243 295.950886 
L 153.863167 296.871781 
L 154.017092 288.613348 
L 154.171016 297.052863 
L 154.32494 296.040417 
L 154.478864 287.904501 
L 154.632789 266.521973 
L 154.786713 294.678597 
L 154.940637 300.677876 
L 155.094561 292.452429 
L 155.40241 241.471349 
L 155.556334 302.105667 
L 155.710258 306.324414 
L 155.864183 307.270889 
L 156.018107 300.416013 
L 156.172031 300.533818 
L 156.325955 291.648665 
L 156.633804 188.886109 
L 156.787728 303.632413 
L 156.941652 303.53413 
L 157.095576 301.853902 
L 157.249501 292.633511 
L 157.403425 300.830012 
L 157.557349 290.058641 
L 157.711273 289.04283 
L 157.865198 289.079854 
L 158.019122 303.507204 
L 158.173046 302.687284 
L 158.32697 278.251937 
L 158.480895 304.091514 
L 158.634819 284.456532 
L 158.788743 282.901512 
L 158.942667 294.029663 
L 159.250516 285.032091 
L 159.40444 286.56153 
L 159.558364 275.491272 
L 159.712289 288.93243 
L 159.866213 292.391843 
L 160.020137 299.610231 
L 160.174061 300.089527 
L 160.327986 305.260135 
L 160.48191 303.902354 
L 160.635834 296.016856 
L 160.789758 271.880396 
L 160.943682 298.688663 
L 161.097607 292.863735 
L 161.251531 263.34933 
L 161.405455 303.764354 
L 161.559379 305.291101 
L 161.713304 304.89999 
L 162.021152 300.521701 
L 162.175076 269.184355 
L 162.482925 305.614895 
L 162.636849 268.612162 
L 162.790773 278.685457 
L 163.098622 264.606809 
L 163.40647 293.839829 
L 163.560395 289.345082 
L 163.714319 295.907803 
L 163.868243 293.413713 
L 164.022167 282.831503 
L 164.176092 294.548676 
L 164.330016 295.39081 
L 164.48394 228.393029 
L 164.791789 290.599195 
L 165.099637 299.233929 
L 165.253561 294.28412 
L 165.407485 277.40509 
L 165.56141 288.992342 
L 165.715334 263.96124 
L 165.869258 266.026521 
L 166.023182 274.087715 
L 166.177107 303.315351 
L 166.484955 299.410299 
L 166.638879 270.354995 
L 166.792804 279.137826 
L 166.946728 304.655629 
L 167.100652 297.195575 
L 167.254576 302.807108 
L 167.562425 291.775221 
L 167.716349 282.801883 
L 167.870273 302.819899 
L 168.024198 279.419211 
L 168.178122 294.72168 
L 168.48597 254.27569 
L 168.639895 264.797989 
L 168.793819 288.749328 
L 168.947743 269.26177 
L 169.101667 292.617355 
L 169.255591 268.26548 
L 169.409516 296.30026 
L 169.56344 291.827055 
L 169.717364 301.700419 
L 169.871288 284.116582 
L 170.025213 304.385016 
L 170.333061 281.197049 
L 170.486985 299.598114 
L 170.64091 247.832793 
L 170.794834 265.060524 
L 170.948758 296.006086 
L 171.102682 286.776944 
L 171.256607 247.619398 
L 171.410531 282.387885 
L 171.564455 283.548427 
L 171.718379 287.273069 
L 172.026228 232.38088 
L 172.180152 286.691452 
L 172.334076 293.413713 
L 172.488001 227.611481 
L 172.641925 286.614037 
L 172.795849 271.378212 
L 173.103697 294.098326 
L 173.257622 294.507612 
L 173.56547 304.746507 
L 173.719394 257.746547 
L 174.027243 301.488371 
L 174.181167 277.716768 
L 174.335091 286.695491 
L 174.489016 287.022651 
L 174.64294 279.715405 
L 174.796864 299.712552 
L 174.950788 276.029134 
L 175.104713 300.564784 
L 175.258637 280.321257 
L 175.412561 303.469506 
L 175.566485 291.954957 
L 175.72041 259.072016 
L 175.874334 294.646285 
L 176.028258 300.545935 
L 176.182182 277.222662 
L 176.336107 307.727298 
L 176.490031 250.490463 
L 176.643955 302.805089 
L 176.797879 281.391595 
L 176.951804 240.80222 
L 177.259652 275.997495 
L 177.721425 296.497499 
L 177.875349 287.083909 
L 178.029273 269.39573 
L 178.183197 292.812574 
L 178.64497 267.971979 
L 178.798894 301.515971 
L 178.952819 239.843628 
L 179.106743 280.216243 
L 179.260667 281.13781 
L 179.414591 226.91879 
L 179.568516 286.376409 
L 179.72244 295.937423 
L 179.876364 243.294963 
L 180.030288 291.577309 
L 180.184213 299.478963 
L 180.338137 295.978486 
L 180.492061 238.998801 
L 180.645985 281.60095 
L 180.79991 264.293112 
L 180.953834 271.631323 
L 181.107758 295.301951 
L 181.261682 273.150665 
L 181.415606 302.409266 
L 181.569531 266.503125 
L 181.723455 292.895374 
L 182.031303 241.447789 
L 182.185228 287.217869 
L 182.339152 276.855112 
L 182.493076 297.990587 
L 182.647 281.788764 
L 182.954849 302.533802 
L 183.108773 275.908637 
L 183.262697 294.117175 
L 183.416622 285.56524 
L 183.570546 270.06486 
L 183.72447 299.488387 
L 183.878394 255.373628 
L 184.032319 295.283103 
L 184.186243 252.76106 
L 184.340167 297.86807 
L 184.648016 288.247817 
L 184.80194 258.830349 
L 184.955864 296.699449 
L 185.109788 302.51428 
L 185.417637 259.341284 
L 185.571561 283.64671 
L 185.725485 285.60765 
L 186.033334 298.742516 
L 186.187258 292.41877 
L 186.341182 305.270905 
L 186.495106 295.473609 
L 186.649031 295.461492 
L 186.956879 282.602625 
L 187.110803 284.088982 
L 187.264728 273.310206 
L 187.572576 295.558429 
L 187.7265 300.252433 
L 187.880425 234.238153 
L 188.034349 291.740216 
L 188.188273 267.684536 
L 188.342197 273.042285 
L 188.496122 271.789518 
L 188.650046 285.358578 
L 188.80397 274.216964 
L 188.957894 283.031434 
L 189.111819 279.887736 
L 189.265743 231.113977 
L 189.419667 294.92565 
L 189.573591 262.83099 
L 189.727515 129.028629 
L 189.88144 270.392693 
L 190.035364 257.17772 
L 190.189288 194.392629 
L 190.343212 278.280883 
L 190.497137 276.39803 
L 190.651061 256.93336 
L 190.804985 256.268269 
L 191.112834 245.002119 
L 191.266758 260.086481 
L 191.420682 127.956944 
L 191.574606 303.915817 
L 191.728531 292.857676 
L 192.036379 242.870867 
L 192.344228 274.986396 
L 192.652076 285.368675 
L 192.806 234.762551 
L 192.959925 259.652961 
L 193.421697 237.514464 
L 193.575621 245.055299 
L 193.729546 237.020359 
L 193.88347 284.658482 
L 194.037394 297.883553 
L 194.191318 269.812422 
L 194.345243 287.104777 
L 194.499167 261.696028 
L 194.653091 292.060644 
L 194.807015 243.195334 
L 194.96094 261.483306 
L 195.114864 300.533145 
L 195.268788 298.290147 
L 195.422712 293.975809 
L 195.576637 295.070381 
L 195.730561 288.356871 
L 195.884485 218.550631 
L 196.038409 298.740497 
L 196.346258 256.583312 
L 196.500182 265.774756 
L 196.808031 301.568478 
L 196.961955 287.966433 
L 197.115879 259.282045 
L 197.423728 299.375295 
L 197.577652 255.393823 
L 197.731576 255.580964 
L 197.8855 248.269679 
L 198.039424 225.655926 
L 198.193349 300.028941 
L 198.347273 277.754465 
L 198.501197 297.890958 
L 198.655121 298.585668 
L 198.809046 306.098903 
L 198.96297 55.8 
L 199.116894 239.103142 
L 199.270818 285.573992 
L 199.424743 286.27678 
L 199.578667 256.310005 
L 199.886515 304.896624 
L 200.04044 301.083124 
L 200.194364 277.622524 
L 200.348288 209.158582 
L 200.502212 237.655157 
L 200.656137 295.038742 
L 200.810061 293.744239 
L 200.963985 293.421118 
L 201.271834 303.474892 
L 201.425758 295.629785 
L 201.579682 303.885524 
L 201.733606 304.244323 
L 201.88753 299.810835 
L 202.041455 306.584257 
L 202.349303 286.918309 
L 202.503227 264.361102 
L 202.657152 264.886174 
L 202.811076 283.730856 
L 202.965 252.485061 
L 203.272849 298.657024 
L 203.426773 247.808559 
L 203.580697 245.960038 
L 203.734621 287.058328 
L 203.888546 279.780029 
L 204.04247 281.838579 
L 204.196394 244.443389 
L 204.350318 241.364316 
L 204.504243 287.6386 
L 204.658167 284.958042 
L 204.812091 279.336411 
L 205.11994 175.685946 
L 205.427788 296.173032 
L 205.581712 296.870434 
L 205.735636 291.427866 
L 205.889561 300.725671 
L 206.043485 232.711406 
L 206.197409 298.725687 
L 206.351333 248.174089 
L 206.505258 273.520234 
L 206.813106 246.695811 
L 206.96703 287.66418 
L 207.274879 253.325849 
L 207.428803 258.433179 
L 207.582727 255.339296 
L 207.736652 280.163062 
L 207.890576 261.363482 
L 208.0445 280.325296 
L 208.198424 285.335017 
L 208.506273 253.331234 
L 208.660197 294.244403 
L 208.814121 278.38657 
L 208.968046 292.548019 
L 209.12197 268.644474 
L 209.429818 297.514657 
L 209.583743 287.06708 
L 209.737667 235.524578 
L 209.891591 271.872318 
L 210.045515 251.572245 
L 210.199439 291.383437 
L 210.353364 269.025487 
L 210.507288 298.229562 
L 210.661212 280.025063 
L 210.815136 287.724092 
L 210.969061 281.29062 
L 211.122985 244.185565 
L 211.276909 244.91528 
L 211.430833 287.662834 
L 211.584758 299.347022 
L 211.892606 271.179627 
L 212.04653 301.209679 
L 212.200455 240.662874 
L 212.354379 299.520026 
L 212.508303 304.691307 
L 212.816152 285.238754 
L 212.970076 288.499582 
L 213.124 267.996886 
L 213.277924 280.782377 
L 213.431849 273.298762 
L 213.585773 296.009452 
L 213.739697 287.851994 
L 213.893621 301.765043 
L 214.047545 304.050451 
L 214.355394 228.633351 
L 214.509318 291.227262 
L 214.663242 284.57299 
L 214.817167 306.150737 
L 214.971091 278.060084 
L 215.125015 283.619783 
L 215.278939 294.088902 
L 215.432864 264.209639 
L 215.586788 260.257466 
L 215.740712 232.914703 
L 215.894636 288.637582 
L 216.202485 270.883433 
L 216.356409 207.258901 
L 216.510333 300.081449 
L 216.664258 290.405323 
L 216.818182 185.949748 
L 216.972106 218.772104 
L 217.12603 205.812934 
L 217.433879 296.834756 
L 217.587803 269.405155 
L 217.741727 297.54091 
L 217.895652 244.004483 
L 218.049576 274.284281 
L 218.2035 272.612803 
L 218.357424 269.428715 
L 218.511348 242.792779 
L 218.665273 279.083973 
L 218.819197 233.415541 
L 219.127045 283.750378 
L 219.28097 283.826446 
L 219.434894 280.175852 
L 219.588818 280.927782 
L 219.742742 300.741827 
L 219.896667 267.506146 
L 220.204515 298.95995 
L 220.358439 274.429685 
L 220.666288 303.492394 
L 220.820212 290.85096 
L 220.974136 299.673508 
L 221.128061 268.883449 
L 221.281985 273.122392 
L 221.435909 282.037837 
L 221.589833 300.722305 
L 221.743758 291.46691 
L 221.897682 271.512172 
L 222.051606 285.749689 
L 222.20553 264.561706 
L 222.359454 265.380953 
L 222.513379 301.735424 
L 222.821227 276.80799 
L 222.975151 304.337221 
L 223.129076 291.470276 
L 223.283 296.891976 
L 223.436924 264.296478 
L 223.590848 294.331915 
L 223.898697 286.719051 
L 224.052621 305.816172 
L 224.36047 281.946286 
L 224.514394 288.453807 
L 224.668318 217.946799 
L 224.822242 299.017842 
L 224.976167 262.079734 
L 225.284015 290.064026 
L 225.437939 256.667458 
L 225.591864 300.741154 
L 225.745788 305.790592 
L 225.899712 306.673116 
L 226.053636 296.834756 
L 226.361485 306.003986 
L 226.669333 292.54398 
L 226.823257 299.975761 
L 226.977182 249.490134 
L 227.131106 260.116101 
L 227.28503 297.551008 
L 227.438954 254.303963 
L 227.592879 264.413609 
L 227.746803 302.25713 
L 227.900727 264.736057 
L 228.054651 183.625297 
L 228.208576 279.079261 
L 228.516424 244.403672 
L 228.670348 285.311456 
L 228.824273 233.859832 
L 228.978197 302.866347 
L 229.132121 270.738702 
L 229.286045 275.996822 
L 229.43997 301.186118 
L 229.593894 248.571259 
L 229.747818 302.858269 
L 229.901742 270.886126 
L 230.209591 286.706261 
L 230.363515 269.707407 
L 230.517439 294.663114 
L 230.671363 253.381049 
L 231.133136 290.02229 
L 231.28706 274.622885 
L 231.440985 299.684952 
L 231.594909 277.217276 
L 232.056682 288.427553 
L 232.36453 259.708161 
L 232.518454 301.869384 
L 232.672379 260.836391 
L 232.826303 276.715766 
L 232.980227 221.141657 
L 233.134151 234.092075 
L 233.288076 304.763336 
L 233.595924 285.14653 
L 233.749848 263.029575 
L 233.903773 264.892905 
L 234.057697 271.406485 
L 234.365545 294.082843 
L 234.519469 290.04989 
L 234.673394 301.470195 
L 234.827318 275.971241 
L 234.981242 298.95995 
L 235.289091 270.284986 
L 235.596939 296.25987 
L 235.750863 284.385849 
L 235.904788 292.66515 
L 236.212636 258.808807 
L 236.36656 300.422072 
L 236.520485 300.956568 
L 236.674409 299.641196 
L 236.982257 284.198035 
L 237.136182 287.600902 
L 237.290106 287.763809 
L 237.44403 277.304788 
L 237.597954 230.626603 
L 237.751879 300.037019 
L 237.905803 301.371913 
L 238.059727 286.692798 
L 238.213651 297.108736 
L 238.367576 291.450754 
L 238.5215 259.579585 
L 238.675424 297.713915 
L 238.829348 275.190366 
L 238.983272 277.931508 
L 239.137197 263.481944 
L 239.291121 302.480622 
L 239.445045 284.340747 
L 239.598969 301.439903 
L 239.752894 251.999707 
L 239.906818 294.642919 
L 240.060742 281.359956 
L 240.214666 306.296814 
L 240.368591 306.940364 
L 240.676439 303.920529 
L 241.138212 240.890405 
L 241.292136 226.022803 
L 241.44606 304.70881 
L 241.599985 301.631083 
L 241.753909 241.859768 
L 241.907833 248.569239 
L 242.215682 292.14681 
L 242.369606 262.920521 
L 242.52353 302.032291 
L 242.677454 250.318131 
L 242.831378 275.007937 
L 242.985303 230.184331 
L 243.139227 229.30248 
L 243.293151 297.114121 
L 243.447075 279.577406 
L 243.601 240.856747 
L 243.754924 271.943 
L 243.908848 250.155898 
L 244.062772 296.35546 
L 244.216697 291.363242 
L 244.370621 297.214423 
L 244.524545 268.382611 
L 244.832394 287.065733 
L 244.986318 263.945757 
L 245.294166 292.416078 
L 245.448091 261.727666 
L 245.602015 290.74258 
L 245.909863 276.596615 
L 246.217712 293.318123 
L 246.52556 236.096098 
L 246.679484 264.919832 
L 246.833409 251.136705 
L 246.987333 257.356109 
L 247.141257 282.39327 
L 247.295181 235.216267 
L 247.449106 288.309076 
L 247.60303 267.54519 
L 247.756954 297.701798 
L 247.910878 272.457974 
L 248.064803 303.645203 
L 248.218727 228.625273 
L 248.372651 282.853717 
L 248.526575 285.380792 
L 248.6805 277.919391 
L 248.834424 300.397838 
L 248.988348 301.38201 
L 249.142272 301.519337 
L 249.296197 294.320472 
L 249.450121 217.347679 
L 249.604045 286.333999 
L 249.757969 297.085848 
L 249.911894 287.481078 
L 250.065818 305.052799 
L 250.373666 290.309733 
L 250.527591 304.197202 
L 250.681515 301.215738 
L 250.835439 293.265616 
L 250.989363 292.915569 
L 251.143287 231.37584 
L 251.451136 302.291461 
L 251.60506 249.277413 
L 251.758984 259.212035 
L 251.912909 291.4521 
L 252.066833 275.520218 
L 252.220757 278.235781 
L 252.374681 272.536062 
L 252.528606 261.637462 
L 252.68253 293.590757 
L 252.836454 286.32996 
L 252.990378 305.886182 
L 253.144303 301.962282 
L 253.298227 269.719524 
L 253.452151 272.779076 
L 253.606075 286.826085 
L 253.76 267.251015 
L 254.067848 301.143036 
L 254.221772 292.052566 
L 254.375697 261.869032 
L 254.683545 286.316497 
L 254.837469 274.647119 
L 254.991393 292.81594 
L 255.145318 262.184075 
L 255.453166 297.261545 
L 255.60709 289.872846 
L 255.761015 251.015534 
L 256.068863 290.097012 
L 256.376712 301.456059 
L 256.530636 293.0879 
L 256.68456 291.586061 
L 256.838484 294.509632 
L 256.992409 239.538009 
L 257.146333 282.999795 
L 257.300257 234.229401 
L 257.454181 230.866251 
L 257.608106 280.017658 
L 257.915954 251.791024 
L 258.069878 261.329824 
L 258.223803 285.500616 
L 258.377727 251.825356 
L 258.531651 177.33117 
L 258.839499 270.070918 
L 258.993424 242.129708 
L 259.147348 279.828497 
L 259.301272 243.716367 
L 259.455196 283.813656 
L 259.609121 284.686082 
L 259.763045 294.572237 
L 259.916969 293.840502 
L 260.070893 286.507677 
L 260.224818 270.211611 
L 260.532666 303.530765 
L 260.68659 296.001374 
L 260.840515 280.647744 
L 260.994439 294.51569 
L 261.148363 298.12926 
L 261.302287 293.077129 
L 261.456212 281.824442 
L 261.76406 290.588425 
L 261.917984 281.472375 
L 262.071909 250.289185 
L 262.225833 291.053584 
L 262.379757 285.890381 
L 262.533681 299.288456 
L 262.84153 278.923759 
L 262.995454 300.791641 
L 263.149378 256.326835 
L 263.303302 285.14653 
L 263.457227 284.531927 
L 263.611151 279.048968 
L 263.765075 287.664853 
L 263.918999 303.241302 
L 264.072924 303.390072 
L 264.226848 282.747357 
L 264.380772 302.893274 
L 264.534696 263.909406 
L 264.688621 282.453855 
L 264.842545 281.839925 
L 264.996469 264.068947 
L 265.150393 301.214391 
L 265.304318 283.026048 
L 265.458242 300.61931 
L 265.612166 294.562812 
L 265.76609 220.638127 
L 266.073939 299.22989 
L 266.227863 272.849758 
L 266.381787 301.966994 
L 266.689636 297.687661 
L 266.84356 245.315142 
L 266.997484 292.599179 
L 267.151408 285.827103 
L 267.305333 301.79399 
L 267.459257 267.578848 
L 267.613181 276.815395 
L 267.767105 298.525083 
L 267.92103 298.848877 
L 268.228878 172.730736 
L 268.382802 295.493131 
L 268.536727 245.488147 
L 268.844575 298.78156 
L 268.998499 289.532223 
L 269.152424 272.169858 
L 269.306348 294.141409 
L 269.460272 282.804576 
L 269.614196 302.402534 
L 269.768121 271.863566 
L 270.075969 296.055227 
L 270.229893 264.083083 
L 270.383818 202.30236 
L 270.537742 278.448502 
L 270.691666 298.236293 
L 270.84559 297.710549 
L 270.999515 301.268918 
L 271.461287 261.354058 
L 271.615211 298.716936 
L 271.769136 293.379382 
L 271.92306 263.426071 
L 272.076984 299.342309 
L 272.230908 271.701333 
L 272.384833 294.295564 
L 272.538757 268.906337 
L 272.692681 206.644298 
L 272.846605 306.459721 
L 273.00053 261.910095 
L 273.154454 289.09399 
L 273.462302 266.121438 
L 273.616227 297.795368 
L 273.924075 252.338984 
L 274.077999 267.047045 
L 274.231924 242.563229 
L 274.385848 247.247809 
L 274.539772 258.520691 
L 274.693696 285.530236 
L 274.847621 223.505152 
L 275.001545 270.586565 
L 275.155469 273.72959 
L 275.309393 303.390072 
L 275.463317 303.336219 
L 275.617242 261.340594 
L 275.771166 300.156843 
L 275.92509 254.626411 
L 276.079014 300.900695 
L 276.232939 305.614895 
L 276.386863 248.509327 
L 276.540787 296.749264 
L 276.694711 303.773105 
L 276.848636 302.774796 
L 277.00256 297.51331 
L 277.156484 274.406797 
L 277.310408 283.749032 
L 277.464333 279.039544 
L 277.618257 249.457149 
L 277.772181 293.729429 
L 277.926105 289.328253 
L 278.08003 225.404834 
L 278.233954 305.172623 
L 278.387878 286.361599 
L 278.541802 285.696508 
L 278.695727 295.587375 
L 278.849651 264.111357 
L 279.003575 266.315311 
L 279.157499 278.714403 
L 279.311423 279.269768 
L 279.465348 270.962867 
L 279.619272 240.707976 
L 279.773196 301.138996 
L 279.92712 280.128058 
L 280.234969 302.447636 
L 280.388893 261.697374 
L 280.696742 295.196937 
L 280.850666 287.999418 
L 281.00459 293.448045 
L 281.158514 246.978542 
L 281.466363 303.69771 
L 281.620287 306.794286 
L 281.774211 298.639521 
L 281.928136 213.089214 
L 282.08206 287.019958 
L 282.235984 295.752301 
L 282.389908 271.277236 
L 282.543833 293.513342 
L 282.697757 246.299988 
L 283.005605 300.405916 
L 283.467378 279.416518 
L 283.621302 294.890645 
L 283.775226 203.382796 
L 283.929151 254.095954 
L 284.083075 253.587038 
L 284.236999 185.347262 
L 284.390923 213.194228 
L 284.544848 293.386787 
L 284.698772 192.171846 
L 284.852696 294.790343 
L 285.00662 299.1067 
L 285.160545 242.550439 
L 285.314469 303.988519 
L 285.930166 240.166749 
L 286.08409 271.910688 
L 286.238014 269.31495 
L 286.391939 279.253611 
L 286.545863 245.807902 
L 286.853711 299.215081 
L 287.007636 251.091602 
L 287.16156 266.729309 
L 287.315484 209.056934 
L 287.623332 300.515642 
L 287.777257 287.368659 
L 287.931181 286.88667 
L 288.085105 258.983158 
L 288.392954 302.491392 
L 288.700802 245.002119 
L 288.854726 278.231068 
L 289.008651 232.158735 
L 289.162575 290.838843 
L 289.316499 297.934714 
L 289.470423 293.303314 
L 289.624348 281.946959 
L 289.778272 280.438388 
L 289.932196 259.84616 
L 290.08612 287.496561 
L 290.393969 269.535076 
L 290.547893 281.86214 
L 290.701817 275.924119 
L 290.855742 264.734711 
L 291.009666 301.474234 
L 291.317514 258.472896 
L 291.471439 152.944964 
L 291.625363 286.834836 
L 291.779287 304.952497 
L 291.933211 291.924664 
L 292.087135 301.655317 
L 292.24106 298.898018 
L 292.394984 307.195495 
L 292.548908 305.427754 
L 292.702832 284.074172 
L 292.856757 298.116469 
L 293.010681 301.412976 
L 293.164605 300.346004 
L 293.318529 297.832392 
L 293.472454 303.741466 
L 293.626378 278.175869 
L 293.780302 298.706838 
L 293.934226 297.881534 
L 294.088151 243.258612 
L 294.242075 291.038775 
L 294.395999 252.141745 
L 294.549923 293.680288 
L 294.703848 273.095465 
L 294.857772 272.644442 
L 295.011696 243.010886 
L 295.473469 294.635514 
L 295.627393 271.874337 
L 295.781317 268.87941 
L 295.935241 233.044625 
L 296.24309 300.139341 
L 296.397014 304.430791 
L 296.550938 304.132577 
L 296.858787 274.325344 
L 297.012711 307.0097 
L 297.166635 306.222093 
L 297.32056 301.458752 
L 297.474484 232.122384 
L 297.782332 288.717016 
L 297.936257 269.650861 
L 298.244105 291.105418 
L 298.398029 279.404401 
L 298.551954 299.25749 
L 298.705878 286.262643 
L 298.859802 288.333983 
L 299.013726 252.320135 
L 299.321575 306.397117 
L 299.475499 296.732435 
L 299.629423 304.911433 
L 299.783347 301.058216 
L 299.937272 246.864776 
L 300.24512 294.63888 
L 300.399044 252.518047 
L 300.706893 283.329647 
L 300.860817 289.771198 
L 301.168666 262.462767 
L 301.32259 297.420413 
L 301.476514 292.669862 
L 301.630438 302.768065 
L 302.092211 280.749392 
L 302.246135 301.526068 
L 302.553984 287.101411 
L 302.707908 295.147796 
L 302.861832 222.57214 
L 303.015757 232.708714 
L 303.169681 252.027307 
L 303.323605 305.273598 
L 303.631454 285.256256 
L 303.785378 268.144983 
L 303.939302 233.1456 
L 304.24715 292.492819 
L 304.554999 223.602762 
L 304.862847 305.82627 
L 305.016772 280.206818 
L 305.32462 302.045755 
L 305.478544 274.080311 
L 305.632469 280.357608 
L 305.786393 304.057856 
L 305.940317 293.33428 
L 306.094241 303.478931 
L 306.248166 293.975809 
L 306.556014 248.351133 
L 306.709938 306.254405 
L 306.863863 255.551344 
L 307.171711 289.849959 
L 307.325635 257.445641 
L 307.47956 282.272773 
L 307.633484 278.057391 
L 307.787408 301.548956 
L 307.941332 295.934057 
L 308.095256 249.811909 
L 308.249181 244.23336 
L 308.403105 294.475973 
L 308.557029 268.515226 
L 308.710953 294.46453 
L 308.864878 285.639962 
L 309.172726 298.687316 
L 309.480575 275.538394 
L 309.788423 295.508614 
L 309.942347 298.037709 
L 310.096272 276.378508 
L 310.250196 296.705508 
L 310.40412 260.981122 
L 310.558044 263.94845 
L 310.711969 296.216788 
L 310.865893 302.530436 
L 311.019817 288.243778 
L 311.327666 300.27936 
L 311.48159 297.326843 
L 311.635514 301.83438 
L 311.789438 271.312914 
L 311.943362 301.025231 
L 312.097287 292.114498 
L 312.251211 298.135318 
L 312.405135 299.410973 
L 312.559059 298.465844 
L 312.712984 294.027643 
L 312.866908 304.413289 
L 313.020832 302.678533 
L 313.174756 306.119771 
L 313.636529 225.917788 
L 313.790453 301.121494 
L 313.944378 297.240677 
L 314.098302 266.03056 
L 314.252226 294.750626 
L 314.40615 302.028252 
L 314.560075 291.168023 
L 314.713999 261.345307 
L 314.867923 273.013338 
L 315.021847 256.50859 
L 315.175772 300.144053 
L 315.329696 294.705524 
L 315.48362 300.602481 
L 315.637544 283.218575 
L 315.791469 239.756789 
L 316.099317 295.254156 
L 316.253241 259.356767 
L 316.407165 263.066599 
L 316.56109 258.357111 
L 316.715014 287.060348 
L 316.868938 289.487794 
L 317.022862 269.301487 
L 317.176787 300.516316 
L 317.330711 278.509087 
L 317.484635 284.488171 
L 317.638559 306.286717 
L 317.792484 298.701453 
L 317.946408 282.686771 
L 318.100332 282.771591 
L 318.254256 293.57864 
L 318.408181 292.548692 
L 318.562105 280.212877 
L 318.716029 282.154968 
L 318.869953 305.622973 
L 319.023878 292.251824 
L 319.177802 291.141769 
L 319.331726 305.727987 
L 319.48565 279.208509 
L 319.639575 281.114923 
L 319.793499 238.14657 
L 320.255271 283.302721 
L 320.56312 264.531414 
L 320.717044 297.886246 
L 321.024893 246.680328 
L 321.178817 272.632998 
L 321.332741 245.704234 
L 321.486665 248.025992 
L 321.64059 230.835285 
L 321.794514 299.232583 
L 321.948438 299.071022 
L 322.256287 288.002111 
L 322.410211 291.339681 
L 322.564135 286.60192 
L 322.718059 288.257915 
L 322.871984 268.948746 
L 323.025908 291.866772 
L 323.179832 296.475957 
L 323.333756 267.772721 
L 323.641605 296.027627 
L 323.949453 255.766758 
L 324.103378 289.99267 
L 324.257302 280.650436 
L 324.411226 288.36091 
L 324.56515 261.368868 
L 324.719074 293.130309 
L 324.872999 299.840454 
L 325.026923 298.737804 
L 325.180847 305.327452 
L 325.334771 225.087772 
L 325.64262 288.644314 
L 325.796544 299.248739 
L 325.950468 297.391467 
L 326.104393 277.366047 
L 326.566165 302.401188 
L 326.72009 300.354082 
L 326.874014 291.501915 
L 327.027938 302.65228 
L 327.181862 295.491112 
L 327.335787 296.535196 
L 327.489711 298.389776 
L 327.643635 305.245998 
L 327.797559 278.548804 
L 327.951484 272.702334 
L 328.105408 300.766734 
L 328.259332 285.325592 
L 328.413256 302.599772 
L 328.56718 301.858614 
L 328.721105 297.814217 
L 328.875029 286.256585 
L 329.028953 262.439206 
L 329.182877 289.226605 
L 329.336802 288.896079 
L 329.490726 291.01454 
L 329.64465 298.743189 
L 329.798574 250.126278 
L 329.952499 288.56488 
L 330.260347 199.78269 
L 330.414271 252.477656 
L 330.568196 233.437755 
L 330.72212 295.852603 
L 330.876044 301.610215 
L 331.029968 268.532055 
L 331.183893 177.63275 
L 331.491741 295.023933 
L 331.645665 278.566979 
L 331.79959 294.604549 
L 331.953514 273.634 
L 332.107438 269.8205 
L 332.107438 269.8205 
" style="fill:none;stroke:#1f77b4;stroke-linecap:square;stroke-width:1.5;"/>
   </g>
   <g id="patch_3">
    <path d="M 90 320.4 
L 90 43.2 
" style="fill:none;stroke:#000000;stroke-linecap:square;stroke-linejoin:miter;stroke-width:0.8;"/>
   </g>
   <g id="patch_4">
    <path d="M 343.636364 320.4 
L 343.636364 43.2 
" style="fill:none;stroke:#000000;stroke-linecap:square;stroke-linejoin:miter;stroke-width:0.8;"/>
   </g>
   <g id="patch_5">
    <path d="M 90 320.4 
L 343.636364 320.4 
" style="fill:none;stroke:#000000;stroke-linecap:square;stroke-linejoin:miter;stroke-width:0.8;"/>
   </g>
   <g id="patch_6">
    <path d="M 90 43.2 
L 343.636364 43.2 
" style="fill:none;stroke:#000000;stroke-linecap:square;stroke-linejoin:miter;stroke-width:0.8;"/>
   </g>
   <g id="text_16">
    <!-- Time step lengths -->
    <g transform="translate(163.094744 37.2)scale(0.12 -0.12)">
     <defs>
      <path d="M 603 4863 
L 1178 4863 
L 1178 0 
L 603 0 
L 603 4863 
z
" id="DejaVuSans-6c" transform="scale(0.015625)"/>
      <path d="M 2906 1791 
Q 2906 2416 2648 2759 
Q 2391 3103 1925 3103 
Q 1463 3103 1205 2759 
Q 947 2416 947 1791 
Q 947 1169 1205 825 
Q 1463 481 1925 481 
Q 2391 481 2648 825 
Q 2906 1169 2906 1791 
z
M 3481 434 
Q 3481 -459 3084 -895 
Q 2688 -1331 1869 -1331 
Q 1566 -1331 1297 -1286 
Q 1028 -1241 775 -1147 
L 775 -588 
Q 1028 -725 1275 -790 
Q 1522 -856 1778 -856 
Q 2344 -856 2625 -561 
Q 2906 -266 2906 331 
L 2906 616 
Q 2728 306 2450 153 
Q 2172 0 1784 0 
Q 1141 0 747 490 
Q 353 981 353 1791 
Q 353 2603 747 3093 
Q 1141 3584 1784 3584 
Q 2172 3584 2450 3431 
Q 2728 3278 2906 2969 
L 2906 3500 
L 3481 3500 
L 3481 434 
z
" id="DejaVuSans-67" transform="scale(0.015625)"/>
      <path d="M 3513 2113 
L 3513 0 
L 2938 0 
L 2938 2094 
Q 2938 2591 2744 2837 
Q 2550 3084 2163 3084 
Q 1697 3084 1428 2787 
Q 1159 2491 1159 1978 
L 1159 0 
L 581 0 
L 581 4863 
L 1159 4863 
L 1159 2956 
Q 1366 3272 1645 3428 
Q 1925 3584 2291 3584 
Q 2894 3584 3203 3211 
Q 3513 2838 3513 2113 
z
" id="DejaVuSans-68" transform="scale(0.015625)"/>
     </defs>
     <use xlink:href="#DejaVuSans-54"/>
     <use x="57.958984" xlink:href="#DejaVuSans-69"/>
     <use x="85.742188" xlink:href="#DejaVuSans-6d"/>
     <use x="183.154297" xlink:href="#DejaVuSans-65"/>
     <use x="244.677734" xlink:href="#DejaVuSans-20"/>
     <use x="276.464844" xlink:href="#DejaVuSans-73"/>
     <use x="328.564453" xlink:href="#DejaVuSans-74"/>
     <use x="367.773438" xlink:href="#DejaVuSans-65"/>
     <use x="429.296875" xlink:href="#DejaVuSans-70"/>
     <use x="492.773438" xlink:href="#DejaVuSans-20"/>
     <use x="524.560547" xlink:href="#DejaVuSans-6c"/>
     <use x="552.34375" xlink:href="#DejaVuSans-65"/>
     <use x="613.867188" xlink:href="#DejaVuSans-6e"/>
     <use x="677.246094" xlink:href="#DejaVuSans-67"/>
     <use x="740.722656" xlink:href="#DejaVuSans-74"/>
     <use x="779.931641" xlink:href="#DejaVuSans-68"/>
     <use x="843.310547" xlink:href="#DejaVuSans-73"/>
    </g>
   </g>
  </g>
  <g id="axes_2">
   <g id="patch_7">
    <path d="M 394.363636 320.4 
L 648 320.4 
L 648 43.2 
L 394.363636 43.2 
z
" style="fill:#ffffff;"/>
   </g>
   <g id="patch_8">
    <path clip-path="url(#p4507a743d3)" d="M 405.892562 320.4 
L 428.950413 320.4 
L 428.950413 56.4 
L 405.892562 56.4 
z
" style="fill:#1f77b4;"/>
   </g>
   <g id="patch_9">
    <path clip-path="url(#p4507a743d3)" d="M 428.950413 320.4 
L 452.008264 320.4 
L 452.008264 193.874654 
L 428.950413 193.874654 
z
" style="fill:#1f77b4;"/>
   </g>
   <g id="patch_10">
    <path clip-path="url(#p4507a743d3)" d="M 452.008264 320.4 
L 475.066116 320.4 
L 475.066116 272.648848 
L 452.008264 272.648848 
z
" style="fill:#1f77b4;"/>
   </g>
   <g id="patch_11">
    <path clip-path="url(#p4507a743d3)" d="M 475.066116 320.4 
L 498.123967 320.4 
L 498.123967 308.538249 
L 475.066116 308.538249 
z
" style="fill:#1f77b4;"/>
   </g>
   <g id="patch_12">
    <path clip-path="url(#p4507a743d3)" d="M 498.123967 320.4 
L 521.181818 320.4 
L 521.181818 317.054378 
L 498.123967 317.054378 
z
" style="fill:#1f77b4;"/>
   </g>
   <g id="patch_13">
    <path clip-path="url(#p4507a743d3)" d="M 521.181818 320.4 
L 544.239669 320.4 
L 544.239669 319.18341 
L 521.181818 319.18341 
z
" style="fill:#1f77b4;"/>
   </g>
   <g id="patch_14">
    <path clip-path="url(#p4507a743d3)" d="M 544.239669 320.4 
L 567.297521 320.4 
L 567.297521 320.095853 
L 544.239669 320.095853 
z
" style="fill:#1f77b4;"/>
   </g>
   <g id="patch_15">
    <path clip-path="url(#p4507a743d3)" d="M 567.297521 320.4 
L 590.355372 320.4 
L 590.355372 319.791705 
L 567.297521 319.791705 
z
" style="fill:#1f77b4;"/>
   </g>
   <g id="patch_16">
    <path clip-path="url(#p4507a743d3)" d="M 590.355372 320.4 
L 613.413223 320.4 
L 613.413223 320.4 
L 590.355372 320.4 
z
" style="fill:#1f77b4;"/>
   </g>
   <g id="patch_17">
    <path clip-path="url(#p4507a743d3)" d="M 613.413223 320.4 
L 636.471074 320.4 
L 636.471074 320.095853 
L 613.413223 320.095853 
z
" style="fill:#1f77b4;"/>
   </g>
   <g id="matplotlib.axis_3">
    <g id="xtick_8">
     <g id="line2d_15">
      <g>
       <use style="stroke:#000000;stroke-width:0.8;" x="414.704124" xlink:href="#mb0af05c60e" y="320.4"/>
      </g>
     </g>
     <g id="text_17">
      <!-- 0.01 -->
      <g transform="translate(403.571312 334.998438)scale(0.1 -0.1)">
       <use xlink:href="#DejaVuSans-30"/>
       <use x="63.623047" xlink:href="#DejaVuSans-2e"/>
       <use x="95.410156" xlink:href="#DejaVuSans-30"/>
       <use x="159.033203" xlink:href="#DejaVuSans-31"/>
      </g>
     </g>
    </g>
    <g id="xtick_9">
     <g id="line2d_16">
      <g>
       <use style="stroke:#000000;stroke-width:0.8;" x="454.449692" xlink:href="#mb0af05c60e" y="320.4"/>
      </g>
     </g>
     <g id="text_18">
      <!-- 0.02 -->
      <g transform="translate(443.316879 334.998438)scale(0.1 -0.1)">
       <use xlink:href="#DejaVuSans-30"/>
       <use x="63.623047" xlink:href="#DejaVuSans-2e"/>
       <use x="95.410156" xlink:href="#DejaVuSans-30"/>
       <use x="159.033203" xlink:href="#DejaVuSans-32"/>
      </g>
     </g>
    </g>
    <g id="xtick_10">
     <g id="line2d_17">
      <g>
       <use style="stroke:#000000;stroke-width:0.8;" x="494.195259" xlink:href="#mb0af05c60e" y="320.4"/>
      </g>
     </g>
     <g id="text_19">
      <!-- 0.03 -->
      <g transform="translate(483.062447 334.998438)scale(0.1 -0.1)">
       <use xlink:href="#DejaVuSans-30"/>
       <use x="63.623047" xlink:href="#DejaVuSans-2e"/>
       <use x="95.410156" xlink:href="#DejaVuSans-30"/>
       <use x="159.033203" xlink:href="#DejaVuSans-33"/>
      </g>
     </g>
    </g>
    <g id="xtick_11">
     <g id="line2d_18">
      <g>
       <use style="stroke:#000000;stroke-width:0.8;" x="533.940827" xlink:href="#mb0af05c60e" y="320.4"/>
      </g>
     </g>
     <g id="text_20">
      <!-- 0.04 -->
      <g transform="translate(522.808014 334.998438)scale(0.1 -0.1)">
       <use xlink:href="#DejaVuSans-30"/>
       <use x="63.623047" xlink:href="#DejaVuSans-2e"/>
       <use x="95.410156" xlink:href="#DejaVuSans-30"/>
       <use x="159.033203" xlink:href="#DejaVuSans-34"/>
      </g>
     </g>
    </g>
    <g id="xtick_12">
     <g id="line2d_19">
      <g>
       <use style="stroke:#000000;stroke-width:0.8;" x="573.686394" xlink:href="#mb0af05c60e" y="320.4"/>
      </g>
     </g>
     <g id="text_21">
      <!-- 0.05 -->
      <g transform="translate(562.553582 334.998438)scale(0.1 -0.1)">
       <use xlink:href="#DejaVuSans-30"/>
       <use x="63.623047" xlink:href="#DejaVuSans-2e"/>
       <use x="95.410156" xlink:href="#DejaVuSans-30"/>
       <use x="159.033203" xlink:href="#DejaVuSans-35"/>
      </g>
     </g>
    </g>
    <g id="xtick_13">
     <g id="line2d_20">
      <g>
       <use style="stroke:#000000;stroke-width:0.8;" x="613.431962" xlink:href="#mb0af05c60e" y="320.4"/>
      </g>
     </g>
     <g id="text_22">
      <!-- 0.06 -->
      <g transform="translate(602.29915 334.998438)scale(0.1 -0.1)">
       <use xlink:href="#DejaVuSans-30"/>
       <use x="63.623047" xlink:href="#DejaVuSans-2e"/>
       <use x="95.410156" xlink:href="#DejaVuSans-30"/>
       <use x="159.033203" xlink:href="#DejaVuSans-36"/>
      </g>
     </g>
    </g>
    <g id="text_23">
     <!-- Step duration [s] -->
     <g transform="translate(479.072443 348.676562)scale(0.1 -0.1)">
      <use xlink:href="#DejaVuSans-53"/>
      <use x="63.476562" xlink:href="#DejaVuSans-74"/>
      <use x="102.685547" xlink:href="#DejaVuSans-65"/>
      <use x="164.208984" xlink:href="#DejaVuSans-70"/>
      <use x="227.685547" xlink:href="#DejaVuSans-20"/>
      <use x="259.472656" xlink:href="#DejaVuSans-64"/>
      <use x="322.949219" xlink:href="#DejaVuSans-75"/>
      <use x="386.328125" xlink:href="#DejaVuSans-72"/>
      <use x="427.441406" xlink:href="#DejaVuSans-61"/>
      <use x="488.720703" xlink:href="#DejaVuSans-74"/>
      <use x="527.929688" xlink:href="#DejaVuSans-69"/>
      <use x="555.712891" xlink:href="#DejaVuSans-6f"/>
      <use x="616.894531" xlink:href="#DejaVuSans-6e"/>
      <use x="680.273438" xlink:href="#DejaVuSans-20"/>
      <use x="712.060547" xlink:href="#DejaVuSans-5b"/>
      <use x="751.074219" xlink:href="#DejaVuSans-73"/>
      <use x="803.173828" xlink:href="#DejaVuSans-5d"/>
     </g>
    </g>
   </g>
   <g id="matplotlib.axis_4">
    <g id="ytick_7">
     <g id="line2d_21">
      <g>
       <use style="stroke:#000000;stroke-width:0.8;" x="394.363636" xlink:href="#mafe00debee" y="320.4"/>
      </g>
     </g>
     <g id="text_24">
      <!-- 0 -->
      <g transform="translate(381.001136 324.199219)scale(0.1 -0.1)">
       <use xlink:href="#DejaVuSans-30"/>
      </g>
     </g>
    </g>
    <g id="ytick_8">
     <g id="line2d_22">
      <g>
       <use style="stroke:#000000;stroke-width:0.8;" x="394.363636" xlink:href="#mafe00debee" y="259.570507"/>
      </g>
     </g>
     <g id="text_25">
      <!-- 200 -->
      <g transform="translate(368.276136 263.369726)scale(0.1 -0.1)">
       <use xlink:href="#DejaVuSans-32"/>
       <use x="63.623047" xlink:href="#DejaVuSans-30"/>
       <use x="127.246094" xlink:href="#DejaVuSans-30"/>
      </g>
     </g>
    </g>
    <g id="ytick_9">
     <g id="line2d_23">
      <g>
       <use style="stroke:#000000;stroke-width:0.8;" x="394.363636" xlink:href="#mafe00debee" y="198.741014"/>
      </g>
     </g>
     <g id="text_26">
      <!-- 400 -->
      <g transform="translate(368.276136 202.540233)scale(0.1 -0.1)">
       <use xlink:href="#DejaVuSans-34"/>
       <use x="63.623047" xlink:href="#DejaVuSans-30"/>
       <use x="127.246094" xlink:href="#DejaVuSans-30"/>
      </g>
     </g>
    </g>
    <g id="ytick_10">
     <g id="line2d_24">
      <g>
       <use style="stroke:#000000;stroke-width:0.8;" x="394.363636" xlink:href="#mafe00debee" y="137.911521"/>
      </g>
     </g>
     <g id="text_27">
      <!-- 600 -->
      <g transform="translate(368.276136 141.710739)scale(0.1 -0.1)">
       <use xlink:href="#DejaVuSans-36"/>
       <use x="63.623047" xlink:href="#DejaVuSans-30"/>
       <use x="127.246094" xlink:href="#DejaVuSans-30"/>
      </g>
     </g>
    </g>
    <g id="ytick_11">
     <g id="line2d_25">
      <g>
       <use style="stroke:#000000;stroke-width:0.8;" x="394.363636" xlink:href="#mafe00debee" y="77.082028"/>
      </g>
     </g>
     <g id="text_28">
      <!-- 800 -->
      <g transform="translate(368.276136 80.881246)scale(0.1 -0.1)">
       <defs>
        <path d="M 2034 2216 
Q 1584 2216 1326 1975 
Q 1069 1734 1069 1313 
Q 1069 891 1326 650 
Q 1584 409 2034 409 
Q 2484 409 2743 651 
Q 3003 894 3003 1313 
Q 3003 1734 2745 1975 
Q 2488 2216 2034 2216 
z
M 1403 2484 
Q 997 2584 770 2862 
Q 544 3141 544 3541 
Q 544 4100 942 4425 
Q 1341 4750 2034 4750 
Q 2731 4750 3128 4425 
Q 3525 4100 3525 3541 
Q 3525 3141 3298 2862 
Q 3072 2584 2669 2484 
Q 3125 2378 3379 2068 
Q 3634 1759 3634 1313 
Q 3634 634 3220 271 
Q 2806 -91 2034 -91 
Q 1263 -91 848 271 
Q 434 634 434 1313 
Q 434 1759 690 2068 
Q 947 2378 1403 2484 
z
M 1172 3481 
Q 1172 3119 1398 2916 
Q 1625 2713 2034 2713 
Q 2441 2713 2670 2916 
Q 2900 3119 2900 3481 
Q 2900 3844 2670 4047 
Q 2441 4250 2034 4250 
Q 1625 4250 1398 4047 
Q 1172 3844 1172 3481 
z
" id="DejaVuSans-38" transform="scale(0.015625)"/>
       </defs>
       <use xlink:href="#DejaVuSans-38"/>
       <use x="63.623047" xlink:href="#DejaVuSans-30"/>
       <use x="127.246094" xlink:href="#DejaVuSans-30"/>
      </g>
     </g>
    </g>
    <g id="text_29">
     <!-- Time step count -->
     <g transform="translate(362.196449 222.133594)rotate(-90)scale(0.1 -0.1)">
      <defs>
       <path d="M 3122 3366 
L 3122 2828 
Q 2878 2963 2633 3030 
Q 2388 3097 2138 3097 
Q 1578 3097 1268 2742 
Q 959 2388 959 1747 
Q 959 1106 1268 751 
Q 1578 397 2138 397 
Q 2388 397 2633 464 
Q 2878 531 3122 666 
L 3122 134 
Q 2881 22 2623 -34 
Q 2366 -91 2075 -91 
Q 1284 -91 818 406 
Q 353 903 353 1747 
Q 353 2603 823 3093 
Q 1294 3584 2113 3584 
Q 2378 3584 2631 3529 
Q 2884 3475 3122 3366 
z
" id="DejaVuSans-63" transform="scale(0.015625)"/>
      </defs>
      <use xlink:href="#DejaVuSans-54"/>
      <use x="57.958984" xlink:href="#DejaVuSans-69"/>
      <use x="85.742188" xlink:href="#DejaVuSans-6d"/>
      <use x="183.154297" xlink:href="#DejaVuSans-65"/>
      <use x="244.677734" xlink:href="#DejaVuSans-20"/>
      <use x="276.464844" xlink:href="#DejaVuSans-73"/>
      <use x="328.564453" xlink:href="#DejaVuSans-74"/>
      <use x="367.773438" xlink:href="#DejaVuSans-65"/>
      <use x="429.296875" xlink:href="#DejaVuSans-70"/>
      <use x="492.773438" xlink:href="#DejaVuSans-20"/>
      <use x="524.560547" xlink:href="#DejaVuSans-63"/>
      <use x="579.541016" xlink:href="#DejaVuSans-6f"/>
      <use x="640.722656" xlink:href="#DejaVuSans-75"/>
      <use x="704.101562" xlink:href="#DejaVuSans-6e"/>
      <use x="767.480469" xlink:href="#DejaVuSans-74"/>
     </g>
    </g>
   </g>
   <g id="patch_18">
    <path d="M 394.363636 320.4 
L 394.363636 43.2 
" style="fill:none;stroke:#000000;stroke-linecap:square;stroke-linejoin:miter;stroke-width:0.8;"/>
   </g>
   <g id="patch_19">
    <path d="M 648 320.4 
L 648 43.2 
" style="fill:none;stroke:#000000;stroke-linecap:square;stroke-linejoin:miter;stroke-width:0.8;"/>
   </g>
   <g id="patch_20">
    <path d="M 394.363636 320.4 
L 648 320.4 
" style="fill:none;stroke:#000000;stroke-linecap:square;stroke-linejoin:miter;stroke-width:0.8;"/>
   </g>
   <g id="patch_21">
    <path d="M 394.363636 43.2 
L 648 43.2 
" style="fill:none;stroke:#000000;stroke-linecap:square;stroke-linejoin:miter;stroke-width:0.8;"/>
   </g>
   <g id="text_30">
    <!-- Time step length distribution -->
    <g transform="translate(434.485568 37.2)scale(0.12 -0.12)">
     <defs>
      <path d="M 3116 1747 
Q 3116 2381 2855 2742 
Q 2594 3103 2138 3103 
Q 1681 3103 1420 2742 
Q 1159 2381 1159 1747 
Q 1159 1113 1420 752 
Q 1681 391 2138 391 
Q 2594 391 2855 752 
Q 3116 1113 3116 1747 
z
M 1159 2969 
Q 1341 3281 1617 3432 
Q 1894 3584 2278 3584 
Q 2916 3584 3314 3078 
Q 3713 2572 3713 1747 
Q 3713 922 3314 415 
Q 2916 -91 2278 -91 
Q 1894 -91 1617 61 
Q 1341 213 1159 525 
L 1159 0 
L 581 0 
L 581 4863 
L 1159 4863 
L 1159 2969 
z
" id="DejaVuSans-62" transform="scale(0.015625)"/>
     </defs>
     <use xlink:href="#DejaVuSans-54"/>
     <use x="57.958984" xlink:href="#DejaVuSans-69"/>
     <use x="85.742188" xlink:href="#DejaVuSans-6d"/>
     <use x="183.154297" xlink:href="#DejaVuSans-65"/>
     <use x="244.677734" xlink:href="#DejaVuSans-20"/>
     <use x="276.464844" xlink:href="#DejaVuSans-73"/>
     <use x="328.564453" xlink:href="#DejaVuSans-74"/>
     <use x="367.773438" xlink:href="#DejaVuSans-65"/>
     <use x="429.296875" xlink:href="#DejaVuSans-70"/>
     <use x="492.773438" xlink:href="#DejaVuSans-20"/>
     <use x="524.560547" xlink:href="#DejaVuSans-6c"/>
     <use x="552.34375" xlink:href="#DejaVuSans-65"/>
     <use x="613.867188" xlink:href="#DejaVuSans-6e"/>
     <use x="677.246094" xlink:href="#DejaVuSans-67"/>
     <use x="740.722656" xlink:href="#DejaVuSans-74"/>
     <use x="779.931641" xlink:href="#DejaVuSans-68"/>
     <use x="843.310547" xlink:href="#DejaVuSans-20"/>
     <use x="875.097656" xlink:href="#DejaVuSans-64"/>
     <use x="938.574219" xlink:href="#DejaVuSans-69"/>
     <use x="966.357422" xlink:href="#DejaVuSans-73"/>
     <use x="1018.457031" xlink:href="#DejaVuSans-74"/>
     <use x="1057.666016" xlink:href="#DejaVuSans-72"/>
     <use x="1098.779297" xlink:href="#DejaVuSans-69"/>
     <use x="1126.5625" xlink:href="#DejaVuSans-62"/>
     <use x="1190.039062" xlink:href="#DejaVuSans-75"/>
     <use x="1253.417969" xlink:href="#DejaVuSans-74"/>
     <use x="1292.626953" xlink:href="#DejaVuSans-69"/>
     <use x="1320.410156" xlink:href="#DejaVuSans-6f"/>
     <use x="1381.591797" xlink:href="#DejaVuSans-6e"/>
    </g>
   </g>
  </g>
 </g>
 <defs>
  <clipPath id="p564a430c13">
   <rect height="277.2" width="253.636364" x="90" y="43.2"/>
  </clipPath>
  <clipPath id="p4507a743d3">
   <rect height="277.2" width="253.636364" x="394.363636" y="43.2"/>
  </clipPath>
 </defs>
</svg>
